<svg width="18" height="17" viewBox="0 0 18 17" fill="none" xmlns="http://www.w3.org/2000/svg">
<path fill-rule="evenodd" clip-rule="evenodd" d="M9.67909 1.08973L13.2627 6.457H17.1818C17.6318 6.457 18 6.82518 18 7.27518L17.9755 7.49609L15.8973 15.0806C15.7009 15.7679 15.0709 16.2752 14.3182 16.2752H3.68182C2.92909 16.2752 2.29909 15.7679 2.11091 15.0806L0.0327273 7.49609C0.00818182 7.42246 0 7.34882 0 7.27518C0 6.82518 0.368182 6.457 0.818182 6.457H4.73727L8.32091 1.09791C8.47636 0.860639 8.73818 0.746094 9 0.746094C9.26182 0.746094 9.52364 0.860639 9.67909 1.08973ZM9.00142 2.85693L6.54688 6.45693H11.456L9.00142 2.85693Z" fill="#150C15"/>
</svg>
